<svg xmlns="http://www.w3.org/2000/svg" xmlns:xlink="http://www.w3.org/1999/xlink" xmlns:lucid="lucid" width="1560" height="900"><g transform="translate(-140 -20)" lucid:page-tab-id="0_0"><path d="M0 0h1870.4v1323.2H0z" fill="#fff"/><path d="M160 50h160v120H160z" stroke="#000" stroke-width="2" fill="#fff"/><use xlink:href="#a" transform="matrix(1,0,0,1,160,50) translate(41.55499999999999 63.15)"/><path d="M160 770h160v120H160z" stroke="#000" stroke-width="2" fill="#fff"/><use xlink:href="#b" transform="matrix(1,0,0,1,160,770) translate(17.054999999999986 51.9)"/><use xlink:href="#c" transform="matrix(1,0,0,1,160,770) translate(63.00499999999999 51.9)"/><use xlink:href="#d" transform="matrix(1,0,0,1,160,770) translate(83.005 51.9)"/><use xlink:href="#e" transform="matrix(1,0,0,1,160,770) translate(58.555 73.5)"/><path d="M240 410.17V189.5" stroke="#000" stroke-width="2" fill="none"/><path d="M240 425.44l-4.64-14.27h9.28zM240 174.24l4.64 14.26h-9.28z" stroke="#000" stroke-width="2"/><path d="M240 750.5V589.83" stroke="#000" stroke-width="2" fill="none"/><path d="M240 765.76l-4.64-14.26h9.28zM240 574.56l4.64 14.27h-9.28z" stroke="#000" stroke-width="2"/><path d="M240 430l80 70-80 70-80-70z" stroke="#000" stroke-width="2" fill="#fff"/><use xlink:href="#f" transform="matrix(1,0,0,1,160,429.99999999999994) translate(67.505 75.65)"/><path d="M1520 770h160v120h-160z" stroke="#000" stroke-width="2" fill="#fff"/><use xlink:href="#g" transform="matrix(1,0,0,1,1520,770) translate(56.029999999999994 63.15)"/><path d="M975.22 830h525.28" stroke="#000" stroke-width="2" fill="none"/><path d="M959.95 830l14.27-4.64v9.28zM1515.76 830l-14.26 4.64v-9.28z" stroke="#000" stroke-width="2"/><path d="M339.5 830h435.68" stroke="#000" stroke-width="2" fill="none"/><path d="M324.24 830l14.26-4.64v9.28zM790.45 830l-14.27 4.64v-9.28z" stroke="#000" stroke-width="2"/><path d="M875.2 760l80 70-80 70-80-70z" stroke="#000" stroke-width="2" fill="#fff"/><use xlink:href="#h" transform="matrix(1,0,0,1,795.1999999999999,760) translate(65.03 75.65)"/><path d="M1520 50h160v120h-160z" stroke="#000" stroke-width="2" fill="#fff"/><use xlink:href="#i" transform="matrix(1,0,0,1,1520,50) translate(59.529999999999994 63.15)"/><path d="M338.42 177.23l437.84 156.54" stroke="#000" stroke-width="2" fill="none"/><path d="M324.05 172.1l15 .43-3.13 8.73zM790.63 338.9l-15-.43 3.13-8.73z" stroke="#000" stroke-width="2"/><path d="M971.43 351.22l532.86 406.56" stroke="#000" stroke-width="2" fill="none"/><path d="M959.3 341.96l14.14 4.97-5.62 7.37zM1516.43 767.04l-14.16-4.97 5.63-7.37z" stroke="#000" stroke-width="2"/><path d="M875.2 270l80 70-80 70-80-70z" stroke="#000" stroke-width="2" fill="#fff"/><use xlink:href="#j" transform="matrix(1,0,0,1,795.1999999999999,270) translate(54.05500000000001 75.65)"/><path d="M322 110h453.18" stroke="#000" stroke-width="2" fill="none"/><path d="M322.03 111H321v-2h1.03z"/><path d="M790.45 110l-14.27 4.64v-9.28z" stroke="#000" stroke-width="2"/><path d="M957.72 110h542.78" stroke="#000" stroke-width="2" fill="none"/><path d="M957.74 111h-2.16l1.14-1-1.14-1h2.16z"/><path d="M1515.76 110l-14.26 4.64v-9.28z" stroke="#000" stroke-width="2"/><path d="M875.2 40l80 70-80 70-80-70z" stroke="#000" stroke-width="2" fill="#fff"/><use xlink:href="#j" transform="matrix(1,0,0,1,795.1999999999999,40) translate(54.05500000000001 75.65)"/><path d="M1600 172v198.17" stroke="#000" stroke-width="2" fill="none"/><path d="M1601 172.03h-2V171h2z"/><path d="M1600 385.44l-4.64-14.27h9.28z" stroke="#000" stroke-width="2"/><path d="M1600 532.33V750.5" stroke="#000" stroke-width="2" fill="none"/><path d="M1601 532.35h-2v-1.9l1 .88 1-.88z"/><path d="M1600 765.76l-4.64-14.26h9.28z" stroke="#000" stroke-width="2"/><path d="M1600 390l80 70-80 70-80-70z" stroke="#000" stroke-width="2" fill="#fff"/><use xlink:href="#h" transform="matrix(1,0,0,1,1520,390) translate(65.03 75.65)"/><path d="M891.7 490.3l612.47-310.92" stroke="#000" stroke-width="2" fill="none"/><path d="M878.1 497.2l10.6-10.58 4.2 8.26zM1517.78 172.46l-10.62 10.6-4.2-8.27z" stroke="#000" stroke-width="2"/><path d="M339.03 764.85l518.14-119.37" stroke="#000" stroke-width="2" fill="none"/><path d="M324.15 768.27l12.86-7.72 2.1 9.04zM872.05 642.06l-12.86 7.7-2.1-9.02z" stroke="#000" stroke-width="2"/><path d="M875.2 500l80 70-80 70-80-70z" stroke="#000" stroke-width="2" fill="#fff"/><g><use xlink:href="#k" transform="matrix(1,0,0,1,795.1999999999999,500) translate(54.05500000000001 75.65)"/></g><defs><path d="M212-179c-10-28-35-45-73-45-59 0-87 40-87 99 0 60 29 101 89 101 43 0 62-24 78-52l27 14C228-24 195 4 139 4 59 4 22-46 18-125c-6-104 99-153 187-111 19 9 31 26 39 46" id="l"/><path d="M100-194c62-1 85 37 85 99 1 63-27 99-86 99S16-35 15-95c0-66 28-99 85-99zM99-20c44 1 53-31 53-75 0-43-8-75-51-75s-53 32-53 75 10 74 51 75" id="m"/><path d="M117-194c89-4 53 116 60 194h-32v-121c0-31-8-49-39-48C34-167 62-67 57 0H25l-1-190h30c1 10-1 24 2 32 11-22 29-35 61-36" id="n"/><path d="M59-47c-2 24 18 29 38 22v24C64 9 27 4 27-40v-127H5v-23h24l9-43h21v43h35v23H59v120" id="o"/><path d="M24-231v-30h32v30H24zM24 0v-190h32V0H24" id="p"/><path d="M100-194c63 0 86 42 84 106H49c0 40 14 67 53 68 26 1 43-12 49-29l28 8c-11 28-37 45-77 45C44 4 14-33 15-96c1-61 26-98 85-98zm52 81c6-60-76-77-97-28-3 7-6 17-6 28h103" id="q"/><g id="a"><use transform="matrix(0.05,0,0,0.05,0,0)" xlink:href="#l"/><use transform="matrix(0.05,0,0,0.05,12.950000000000001,0)" xlink:href="#m"/><use transform="matrix(0.05,0,0,0.05,22.950000000000003,0)" xlink:href="#n"/><use transform="matrix(0.05,0,0,0.05,32.95,0)" xlink:href="#o"/><use transform="matrix(0.05,0,0,0.05,37.95,0)" xlink:href="#p"/><use transform="matrix(0.05,0,0,0.05,41.900000000000006,0)" xlink:href="#n"/><use transform="matrix(0.05,0,0,0.05,51.900000000000006,0)" xlink:href="#q"/><use transform="matrix(0.05,0,0,0.05,61.900000000000006,0)" xlink:href="#n"/><use transform="matrix(0.05,0,0,0.05,71.9,0)" xlink:href="#o"/></g><path d="M30-248c87 1 191-15 191 75 0 78-77 80-158 76V0H30v-248zm33 125c57 0 124 11 124-50 0-59-68-47-124-48v98" id="r"/><g id="b"><use transform="matrix(0.05,0,0,0.05,0,0)" xlink:href="#r"/><use transform="matrix(0.05,0,0,0.05,12,0)" xlink:href="#m"/><use transform="matrix(0.05,0,0,0.05,22,0)" xlink:href="#p"/><use transform="matrix(0.05,0,0,0.05,25.950000000000003,0)" xlink:href="#n"/><use transform="matrix(0.05,0,0,0.05,35.95,0)" xlink:href="#o"/></g><path d="M101-234c-31-9-42 10-38 44h38v23H63V0H32v-167H5v-23h27c-7-52 17-82 69-68v24" id="s"/><g id="c"><use transform="matrix(0.05,0,0,0.05,0,0)" xlink:href="#m"/><use transform="matrix(0.05,0,0,0.05,10,0)" xlink:href="#s"/></g><path d="M33 0v-248h34V0H33" id="t"/><path d="M114-163C36-179 61-72 57 0H25l-1-190h30c1 12-1 29 2 39 6-27 23-49 58-41v29" id="u"/><path d="M135-143c-3-34-86-38-87 0 15 53 115 12 119 90S17 21 10-45l28-5c4 36 97 45 98 0-10-56-113-15-118-90-4-57 82-63 122-42 12 7 21 19 24 35" id="v"/><g id="d"><use transform="matrix(0.05,0,0,0.05,0,0)" xlink:href="#t"/><use transform="matrix(0.05,0,0,0.05,5,0)" xlink:href="#n"/><use transform="matrix(0.05,0,0,0.05,15,0)" xlink:href="#o"/><use transform="matrix(0.05,0,0,0.05,20,0)" xlink:href="#q"/><use transform="matrix(0.05,0,0,0.05,30,0)" xlink:href="#u"/><use transform="matrix(0.05,0,0,0.05,35.95,0)" xlink:href="#q"/><use transform="matrix(0.05,0,0,0.05,45.95,0)" xlink:href="#v"/><use transform="matrix(0.05,0,0,0.05,54.95,0)" xlink:href="#o"/></g><path d="M87 75C49 33 22-17 22-94c0-76 28-126 65-167h31c-38 41-64 92-64 168S80 34 118 75H87" id="w"/><path d="M140-251c81 0 123 46 123 126C263-46 219 4 140 4 59 4 17-45 17-125s42-126 123-126zm0 227c63 0 89-41 89-101s-29-99-89-99c-61 0-89 39-89 99S79-25 140-24" id="x"/><path d="M33-261c38 41 65 92 65 168S71 34 33 75H2C39 34 66-17 66-93S39-220 2-261h31" id="y"/><g id="e"><use transform="matrix(0.05,0,0,0.05,0,0)" xlink:href="#w"/><use transform="matrix(0.05,0,0,0.05,5.95,0)" xlink:href="#r"/><use transform="matrix(0.05,0,0,0.05,17.95,0)" xlink:href="#x"/><use transform="matrix(0.05,0,0,0.05,31.950000000000003,0)" xlink:href="#t"/><use transform="matrix(0.05,0,0,0.05,36.95,0)" xlink:href="#y"/></g><path d="M27 0v-27h64v-190l-56 39v-29l58-41h29v221h61V0H27" id="z"/><path d="M33-154v-36h34v36H33zM33 0v-36h34V0H33" id="A"/><g id="f"><use transform="matrix(0.05,0,0,0.05,0,0)" xlink:href="#z"/><use transform="matrix(0.05,0,0,0.05,10,0)" xlink:href="#A"/><use transform="matrix(0.05,0,0,0.05,15,0)" xlink:href="#n"/></g><path d="M233-177c-1 41-23 64-60 70L243 0h-38l-65-103H63V0H30v-248c88 3 205-21 203 71zM63-129c60-2 137 13 137-47 0-61-80-42-137-45v92" id="B"/><path d="M84 4C-5 8 30-112 23-190h32v120c0 31 7 50 39 49 72-2 45-101 50-169h31l1 190h-30c-1-10 1-25-2-33-11 22-28 36-60 37" id="C"/><g id="g"><use transform="matrix(0.05,0,0,0.05,0,0)" xlink:href="#B"/><use transform="matrix(0.05,0,0,0.05,12.950000000000001,0)" xlink:href="#m"/><use transform="matrix(0.05,0,0,0.05,22.950000000000003,0)" xlink:href="#C"/><use transform="matrix(0.05,0,0,0.05,32.95,0)" xlink:href="#o"/><use transform="matrix(0.05,0,0,0.05,37.95,0)" xlink:href="#q"/></g><path d="M210-169c-67 3-38 105-44 169h-31v-121c0-29-5-50-35-48C34-165 62-65 56 0H25l-1-190h30c1 10-1 24 2 32 10-44 99-50 107 0 11-21 27-35 58-36 85-2 47 119 55 194h-31v-121c0-29-5-49-35-48" id="D"/><g id="h"><use transform="matrix(0.05,0,0,0.05,0,0)" xlink:href="#n"/><use transform="matrix(0.05,0,0,0.05,10,0)" xlink:href="#A"/><use transform="matrix(0.05,0,0,0.05,15,0)" xlink:href="#D"/></g><path d="M209 0H11v-25l151-195H24v-28h176v25L50-27h159V0" id="E"/><g id="i"><use transform="matrix(0.05,0,0,0.05,0,0)" xlink:href="#E"/><use transform="matrix(0.05,0,0,0.05,10.950000000000001,0)" xlink:href="#m"/><use transform="matrix(0.05,0,0,0.05,20.950000000000003,0)" xlink:href="#n"/><use transform="matrix(0.05,0,0,0.05,30.950000000000003,0)" xlink:href="#q"/></g><path d="M68-38c1 34 0 65-14 84H32c9-13 17-26 17-46H33v-38h35" id="F"/><path d="M101-251c82-7 93 87 43 132L82-64C71-53 59-42 53-27h129V0H18c2-99 128-94 128-182 0-28-16-43-45-43s-46 15-49 41l-32-3c6-41 34-60 81-64" id="G"/><g id="j"><use transform="matrix(0.05,0,0,0.05,0,0)" xlink:href="#w"/><use transform="matrix(0.05,0,0,0.05,5.95,0)" xlink:href="#z"/><use transform="matrix(0.05,0,0,0.05,15.949999999999998,0)" xlink:href="#F"/><use transform="matrix(0.05,0,0,0.05,20.95,0)" xlink:href="#G"/><use transform="matrix(0.05,0,0,0.05,30.950000000000003,0)" xlink:href="#y"/><use transform="matrix(0.05,0,0,0.05,36.9,0)" xlink:href="#A"/><use transform="matrix(0.05,0,0,0.05,41.9,0)" xlink:href="#n"/></g><g id="k"><use transform="matrix(0.05,0,0,0.05,0,0)" xlink:href="#w"/><use transform="matrix(0.05,0,0,0.05,5.95,0)" xlink:href="#z"/><use transform="matrix(0.05,0,0,0.05,15.949999999999998,0)" xlink:href="#F"/><use transform="matrix(0.05,0,0,0.05,20.95,0)" xlink:href="#G"/><use transform="matrix(0.05,0,0,0.05,30.950000000000003,0)" xlink:href="#y"/><use transform="matrix(0.05,0,0,0.05,36.9,0)" xlink:href="#A"/><use transform="matrix(0.05,0,0,0.05,41.9,0)" xlink:href="#n"/></g></defs></g></svg>